<svg width="685" height="681" viewBox="0 0 685 681" fill="none" xmlns="http://www.w3.org/2000/svg">
<ellipse cx="342.5" cy="340.5" rx="342.5" ry="340.5" fill="#99CC32"/>
<path d="M194.124 364.095C187.72 391.734 160.258 408.98 132.785 402.615C105.312 396.25 88.2323 368.684 94.6359 341.045C101.039 313.406 128.502 296.161 155.975 302.526C183.448 308.891 200.528 336.457 194.124 364.095Z" fill="white"/>
<path d="M594.724 213.087C590.785 241.773 563.659 261.742 534.137 257.688C504.615 253.634 483.876 227.093 487.815 198.407C491.754 169.72 518.88 149.752 548.402 153.806C577.924 157.86 598.664 184.401 594.724 213.087Z" fill="white"/>
<path d="M318.761 488.239C312.266 516.274 284.316 533.745 256.334 527.262C228.352 520.779 210.933 492.797 217.429 464.762C223.924 436.727 251.874 419.256 279.856 425.739C307.838 432.223 325.256 460.205 318.761 488.239Z" fill="white"/>
<path d="M175.903 310.85L298.79 433.931L225.531 507.074L102.644 383.994L175.903 310.85Z" fill="white"/>
<path d="M570.936 249.88L309.114 509.033L235 434.156L496.822 175.003L570.936 249.88Z" fill="white"/>
</svg>
